<?xml version="1.0" encoding="UTF-8"?><svg width="1496px" height="1185px" viewBox="0 0 1496 1185" version="1.1" xmlns="http://www.w3.org/2000/svg" xmlns:xlink="http://www.w3.org/1999/xlink"><title>group pose</title><g id="FINAL-clean-layers" stroke="none" stroke-width="1" fill="none" fill-rule="evenodd"><g id="group-pose"><rect id="Rectangle-Copy-285" fill="#FFC6B7" fill-rule="nonzero" transform="translate(502.485528, 478.850854) rotate(-65.000000) translate(-502.485528, -478.850854)" x="450.871406" y="427.236732" width="103.228244" height="103.228244" rx="32.4763016"/><polygon id="Rectangle-Copy-275" fill="#FFC6B7" fill-rule="nonzero" transform="translate(504.907856, 509.890117) rotate(-18.000000) translate(-504.907856, -509.890117)" points="453.003766 486.692758 556.811945 486.692758 556.811945 533.087475 453.003766 533.087475"/><path d="M607.190935,502.30079 C635.856772,502.30079 659.095024,525.539043 659.095024,554.20488 L659.095024,675.411077 C659.095024,704.076913 635.856772,727.315166 607.190935,727.315166 C578.525098,727.315166 555.286846,704.076913 555.286846,675.411077 L555.286846,554.20488 C555.286846,525.539043 578.525098,502.30079 607.190935,502.30079 Z" id="Rectangle-Copy-277" fill="#FF4B4B" fill-rule="nonzero" transform="translate(607.190935, 614.807978) rotate(90.000000) translate(-607.190935, -614.807978)"/><path d="M480.282609,522.88812 L584.090787,522.88812 L584.090787,612.487916 C584.090787,641.153753 560.852535,664.392005 532.186698,664.392005 C503.520861,664.392005 480.282609,641.153753 480.282609,612.487916 L480.282609,522.88812 L480.282609,522.88812 Z" id="Rectangle-Copy-276" fill="#FF4B4B" fill-rule="nonzero" transform="translate(532.186698, 593.640063) rotate(-18.000000) translate(-532.186698, -593.640063)"/><path d="M690.483669,562.366112 C743.05742,562.366112 785.676866,604.985557 785.676866,657.559308 C785.676866,659.350535 785.627392,661.130206 785.529738,662.897031 L595.4376,662.897031 C595.339945,661.130206 595.290472,659.350535 595.290472,657.559308 C595.290472,604.985557 637.909918,562.366112 690.483669,562.366112 Z" id="Combined-Shape" fill="#FF4B4B" fill-rule="nonzero" transform="translate(690.483669, 612.631571) scale(-1, 1) rotate(-180.000000) translate(-690.483669, -612.631571)"/><path d="M444.967578,421.938177 L447.219159,400.515811 C448.023786,392.860298 442.470046,386.002001 434.814534,385.197374 L413.392168,382.945793 C405.736656,382.141166 398.878358,387.694906 398.073731,395.350418 L395.82215,416.772784 C395.017523,424.428296 400.571263,431.286594 408.226775,432.091221 L429.649141,434.342802 C437.304654,435.147429 444.162951,429.593689 444.967578,421.938177 Z" id="Rectangle-Copy-2" fill="#FFC6B7" fill-rule="nonzero" transform="translate(421.520655, 408.644297) rotate(-20.000000) translate(-421.520655, -408.644297)"/><path d="M528.871843,450.270994 C522.223846,461.785663 507.500097,465.73088 495.985428,459.082883 L420.270086,415.36861 C408.755417,408.720613 404.810201,393.996863 411.458198,382.482194 C418.106195,370.967525 432.829945,367.022308 444.344613,373.670306 L520.059955,417.384578 C531.574624,424.032576 535.519841,438.756325 528.871843,450.270994 Z" id="Rectangle-Copy-144" fill="#FFC6B7" fill-rule="nonzero" transform="translate(470.165021, 416.376594) rotate(-20.000000) translate(-470.165021, -416.376594)"/><path d="M554.800848,454.771311 C548.152851,466.28598 533.429101,470.231197 521.914433,463.583199 L436.323176,414.167065 L460.397704,372.46876 L545.98896,421.884895 C557.503629,428.532892 561.448845,443.256642 554.800848,454.771311 Z" id="Rectangle-Copy-145" fill="#2FE3FF" fill-rule="nonzero" transform="translate(497.176710, 419.640677) rotate(-20.000000) translate(-497.176710, -419.640677)"/><path d="M508.254348,355.178512 L754.067941,355.178512 C767.363936,355.178512 778.142469,365.957045 778.142469,379.253039 L778.142469,381.153659 C778.142469,394.449654 767.363936,405.228187 754.067941,405.228187 L508.254348,405.228187 C494.958354,405.228187 484.179821,394.449654 484.179821,381.153659 L484.179821,379.253039 C484.179821,365.957045 494.958354,355.178512 508.254348,355.178512 Z" id="Rectangle" fill="#2FE3FF" fill-rule="nonzero" transform="translate(631.161145, 380.203349) rotate(-20.000000) translate(-631.161145, -380.203349)"/><path d="M549.829777,162.073127 C570.474937,162.073127 587.203588,178.852153 587.203588,199.533751 L587.203588,205.15386 L512.445846,205.15386 L512.445846,199.533751 C512.445846,178.852153 529.184617,162.073127 549.829777,162.073127 Z" id="Path-Copy-32" fill="#FF9600" fill-rule="nonzero" transform="translate(549.824717, 183.613494) rotate(-20.000000) translate(-549.824717, -183.613494)"/><path d="M504.089833,213.921391 C526.127952,213.921391 543.997794,196.334315 543.997794,174.641899 C543.997794,152.949483 526.127952,135.362408 504.089833,135.362408 C482.041572,135.362408 464.17173,152.949483 464.17173,174.641899 C464.17173,196.334315 482.041572,213.921391 504.089833,213.921391 Z" id="Path-Copy-38" fill="#FF9600" fill-rule="nonzero" transform="translate(504.084762, 174.641899) rotate(-20.000000) translate(-504.084762, -174.641899)"/><path d="M549.234544,185.442306 L691.147547,185.442306 C717.739535,185.442306 739.296601,206.999372 739.296601,233.59136 L739.296601,509.181342 C739.296601,535.773331 717.739535,557.330397 691.147547,557.330397 L549.234544,557.330397 C522.642556,557.330397 501.08549,535.773331 501.08549,509.181342 L501.08549,233.59136 C501.08549,206.999372 522.642556,185.442306 549.234544,185.442306 Z" id="path-1" fill="#FFC6B7" fill-rule="nonzero" transform="translate(620.191046, 371.386351) rotate(-20.000000) translate(-620.191046, -371.386351)"/><path d="M636.512066,163.216344 C663.104055,163.216344 684.661121,184.773969 684.661121,211.365958 L684.661121,247.477748 L655.642093,247.477748 C639.896837,247.477748 627.132785,234.713696 627.132785,218.96844 L627.13201,163.216344 L636.512066,163.216344 Z" id="Path" fill="#FF9600" opacity="0.33" transform="translate(655.896565, 205.347046) rotate(-20.000000) translate(-655.896565, -205.347046)"/><path d="M774.399346,384.519867 L774.399346,502.991904 C774.399346,529.583893 752.842281,551.140958 726.250292,551.140958 L584.33729,551.140958 C557.745301,551.140958 536.187538,529.583893 536.187538,502.991904 L536.187538,384.519867 L774.399346,384.519867 Z" id="Path" fill="#0084C2" transform="translate(655.293442, 467.830413) rotate(-20.000000) translate(-655.293442, -467.830413)"/><polygon id="Path" fill="#2FE3FF" transform="translate(631.240993, 401.748034) rotate(-20.000000) translate(-631.240993, -401.748034)" points="750.346493 356.450034 750.346493 447.046034 512.135493 447.046034 512.135493 356.450034"/><circle id="Oval" fill="#FFC6B7" fill-rule="nonzero" transform="translate(698.179980, 244.567590) rotate(-20.000000) translate(-698.179980, -244.567590)" cx="698.17998" cy="244.56759" r="21.2235963"/><path d="M567.985069,398.459693 C571.658962,398.459693 574.637241,401.437972 574.637241,405.111865 L574.637241,443.757817 C574.637241,447.43171 571.658962,450.409989 567.985069,450.409989 C564.311176,450.409989 561.332897,447.43171 561.332897,443.757817 L561.332897,405.111865 C561.332897,401.437972 564.311176,398.459693 567.985069,398.459693 Z" id="Rectangle" fill="#FFFFFF" fill-rule="nonzero" transform="translate(567.985069, 424.434841) rotate(-20.000000) translate(-567.985069, -424.434841)"/><path d="M606.086383,384.591949 C609.760276,384.591949 612.738555,387.570228 612.738555,391.244121 L612.738555,429.890072 C612.738555,433.563965 609.760276,436.542244 606.086383,436.542244 C602.41249,436.542244 599.434211,433.563965 599.434211,429.890072 L599.434211,391.244121 C599.434211,387.570228 602.41249,384.591949 606.086383,384.591949 Z" id="Rectangle-Copy-142" fill="#FFFFFF" fill-rule="nonzero" transform="translate(606.086383, 410.567096) rotate(-20.000000) translate(-606.086383, -410.567096)"/><path d="M516.443248,239.38965 C532.940755,239.38965 546.314627,252.763522 546.314627,269.261029 L546.314627,287.430983 C546.314627,303.928491 532.940755,317.302363 516.443248,317.302363 C499.94574,317.302363 486.571868,303.928491 486.571868,287.430983 L486.571868,269.261029 C486.571868,252.763522 499.94574,239.38965 516.443248,239.38965 Z" id="Rectangle-130-Copy-42" fill="#FFFFFF" fill-rule="nonzero" transform="translate(516.443248, 278.346006) rotate(-20.000000) translate(-516.443248, -278.346006)"/><path d="M522.82128,249.106582 C530.227788,249.106582 536.231949,255.110743 536.231949,262.517251 L536.231949,279.361279 C536.231949,286.767787 530.227788,292.771948 522.82128,292.771948 C515.414772,292.771948 509.410611,286.767787 509.410611,279.361279 L509.412001,263.659762 L510.044152,263.678006 L510.044152,263.678006 C515.99236,263.678006 520.814335,258.856031 520.814335,252.907823 C520.814335,251.664754 520.603742,250.470872 520.216288,249.359907 C521.058672,249.193564 521.929818,249.106582 522.82128,249.106582 Z" id="Path" fill="#3D3D3D" fill-rule="nonzero" transform="translate(522.821280, 270.939265) rotate(-20.000000) translate(-522.821280, -270.939265)"/><path d="M582.523273,215.338488 C566.025766,215.338488 552.651894,228.71236 552.651894,245.209867 L552.651894,263.379821 C552.651894,279.877328 566.025766,293.2512 582.523273,293.2512 C599.02078,293.2512 612.394652,279.877328 612.394652,263.379821 L612.394652,245.209867 C612.394652,228.71236 599.02078,215.338488 582.523273,215.338488 Z" id="Rectangle-130-Copy-42" fill="#FFFFFF" fill-rule="nonzero" transform="translate(582.523273, 254.294844) rotate(-20.000000) translate(-582.523273, -254.294844)"/><path d="M581.741959,227.661574 C580.857268,227.661574 579.992585,227.74724 579.155754,227.91073 C579.548755,229.023584 579.75975,230.21856 579.75975,231.462816 C579.75975,237.411023 574.937774,242.232999 568.989566,242.232999 C568.767841,242.232999 568.547681,242.226299 568.329277,242.21309 L568.33129,257.916272 C568.33129,265.32278 574.335451,271.326941 581.741959,271.326941 C589.148467,271.326941 595.152628,265.32278 595.152628,257.916272 L595.152628,241.072243 C595.152628,233.665735 589.148467,227.661574 581.741959,227.661574 Z" id="Path" fill="#3D3D3D" fill-rule="nonzero" transform="translate(581.740952, 249.494258) rotate(-20.000000) translate(-581.740952, -249.494258)"/><path d="M644.474552,266.650732 C612.254378,263.661622 583.565218,271.799698 558.931407,290.97131 L558.186169,291.555645 L570.524278,307.174669 C591.061912,290.951148 614.649608,284.05622 641.811706,286.396233 L642.635894,286.469969 L644.474552,266.650732 Z" id="Path" fill="#FFC6B7" fill-rule="nonzero" transform="translate(601.330360, 286.611474) rotate(-20.000000) translate(-601.330360, -286.611474)"/><path d="M566.864317,325.449949 C540.307767,306.647057 512.510794,296.691178 483.591412,295.699034 L482.658139,295.670138 L482.29084,308.969411 C508.530385,309.694095 533.844359,318.574392 558.350605,335.726855 L559.176353,336.308161 L566.864317,325.449949 Z" id="Path" fill="#FFC6B7" fill-rule="nonzero" transform="translate(524.577578, 315.989150) rotate(-20.000000) translate(-524.577578, -315.989150)"/><path d="M573.360242,314.534023 C573.360242,305.541229 580.55442,298.228725 589.501439,298.037847 L589.846382,298.031433 L589.846382,298.031433 L590.029966,298.000721 C590.333343,297.947947 590.713626,297.854487 591.146315,297.7196 C592.181196,297.396983 593.338494,296.893273 594.442225,296.274362 C595.501747,295.68024 596.419385,295.031685 597.056243,294.45517 L597.239768,294.283398 L597.336929,294.185394 L597.356333,294.151387 C601.553621,286.512509 611.012737,283.443315 618.912231,287.212737 L619.200528,287.353698 C627.348545,291.434274 630.645857,301.347506 626.565281,309.495523 C620.548199,321.510319 603.56418,331.034023 589.860242,331.034023 C580.747544,331.034023 573.360242,323.646722 573.360242,314.534023 Z" id="Path" fill="#FFFFFF" fill-rule="nonzero" transform="translate(600.837920, 308.318702) rotate(-20.000000) translate(-600.837920, -308.318702)"/><path d="M557.77347,317.17959 C564.24652,317.17959 569.493964,311.920432 569.493964,305.432931 C569.493964,298.94543 557.77347,283.60196 557.77347,283.60196 C557.77347,283.60196 546.052977,298.94543 546.052977,305.432931 C546.052977,311.920432 551.300421,317.17959 557.77347,317.17959 Z" id="Oval-Copy-19" fill="#EE9583" fill-rule="nonzero" transform="translate(557.773470, 300.390775) rotate(-13.000000) translate(-557.773470, -300.390775)"/><path d="M559.558343,579.72103 C563.669605,572.600117 572.775082,570.160311 579.895996,574.271573 L617.205004,595.811939 C624.325918,599.9232 626.765723,609.028678 622.654462,616.149591 C618.543201,623.270504 609.437723,625.71031 602.316809,621.599048 L565.007801,600.058682 C557.886887,595.947421 555.447082,586.841943 559.558343,579.72103 Z" id="Rectangle-4-Copy-27" fill="#535353" fill-rule="nonzero" transform="translate(591.106402, 597.935310) rotate(-20.000000) translate(-591.106402, -597.935310)"/><path d="M658.716333,525.041132 C666.938855,525.041132 673.604527,531.706803 673.604527,539.929326 L673.604527,583.010059 C673.604527,591.232582 666.938855,597.898253 658.716333,597.898253 C650.49381,597.898253 643.828138,591.232582 643.828138,583.010059 L643.828138,539.929326 C643.828138,531.706803 650.49381,525.041132 658.716333,525.041132 Z" id="Rectangle-4-Copy-28" fill="#535353" fill-rule="nonzero" transform="translate(658.716332, 561.469693) rotate(-80.000000) translate(-658.716332, -561.469693)"/><circle id="Oval" fill="#FF4B4B" fill-rule="nonzero" transform="translate(968.578485, 657.559768) scale(-1, 1) translate(-968.578485, -657.559768)" cx="968.578485" cy="657.559768" r="95.1931969"/><rect id="Rectangle-Copy-35" fill="#FFC6B7" fill-rule="nonzero" x="767.251382" y="758.023176" width="64.560092" height="223.983993" rx="32.280046"/><rect id="Rectangle-Copy-36" fill="#FFC6B7" fill-rule="nonzero" x="827.260809" y="758.023176" width="64.560092" height="223.983993" rx="32.280046"/><path d="M1014.57712,499.45342 C1015.4335,516.359245 1008.91805,531.755799 997.962049,542.711802 C987.649943,553.023907 973.403903,559.402077 957.668161,559.402077 L957.668161,559.402077 L696.13391,559.402077 C680.398168,559.402077 666.152128,553.023907 655.840022,542.711802 C644.884019,531.755799 638.368567,516.359245 639.224946,499.45342 L639.224946,499.45342 L1014.57712,499.45342 Z" id="Rectangle-Copy-17" stroke="#FFB100" stroke-width="5.92898804" fill="#FFB100" fill-rule="nonzero" stroke-linejoin="round"/><path d="M740.930709,244.836323 L914.847691,244.836323 C945.409595,244.836323 970.184913,269.611641 970.184913,300.173544 L970.184913,506.370573 L970.184913,506.370573 L685.593487,506.370573 L685.593487,300.173544 C685.593487,269.611641 710.368805,244.836323 740.930709,244.836323 Z" id="Rectangle-Copy-18" fill="#FFB100" fill-rule="nonzero"/><path d="M720.749296,561.707795 L938.322987,561.707795 C970.704051,561.707795 996.954091,587.957834 996.954091,620.338899 C996.954091,624.688432 996.470092,629.02446 995.511028,633.26694 L963.641228,774.2451 C957.599569,800.970777 933.853249,819.948163 906.453187,819.948163 L752.619096,819.948163 C725.219033,819.948163 701.472713,800.970777 695.431054,774.2451 L663.561254,633.26694 C656.421294,601.682857 676.237171,570.290817 707.821254,563.150857 C712.063735,562.191794 716.399762,561.707795 720.749296,561.707795 Z" id="path-3" fill="#FF4B4B" fill-rule="nonzero"/><path d="M972.268374,736.080795 L963.641228,774.2451 C957.599569,800.970777 933.853249,819.948163 906.453187,819.948163 L752.619096,819.948163 C725.219033,819.948163 701.472713,800.970777 695.431054,774.2451 L686.803374,736.080795 L972.268374,736.080795 Z" id="Path" fill="#D22121"/><rect id="Rectangle-Copy-16" fill="#D22121" fill-rule="nonzero" x="756.082567" y="798.867316" width="88.9348206" height="52.7021159" rx="4.61143514"/><rect id="Rectangle-Copy-37" fill="#D22121" fill-rule="nonzero" x="818.007553" y="798.867316" width="88.9348206" height="52.7021159" rx="4.61143514"/><path d="M756.741344,283.045357 L894.425621,283.045357 C923.168364,283.045357 946.468961,306.345954 946.468961,335.088697 L946.468961,560.390242 L946.468961,560.390242 L704.698004,560.390242 L704.698004,335.088697 C704.698004,306.345954 727.998601,283.045357 756.741344,283.045357 Z" id="path-5" fill="#FFC6B7" fill-rule="nonzero"/><path d="M756.741344,283.045357 L894.425621,283.045357 C923.168364,283.045357 946.468961,306.345954 946.468961,335.088697 L946.468961,560.390242 L946.468961,560.390242 L704.698004,560.390242 L704.698004,335.088697 C704.698004,306.345954 727.998601,283.045357 756.741344,283.045357 Z" id="path-5"/><path d="M729.731509,300.502933 L729.731509,339.370743 C729.731509,353.693306 718.717864,365.443494 704.697749,366.614132 L702.698004,335.088697 C702.698004,316.872556 714.056873,298.842296 728.228624,289.543905 C729.202955,292.351149 729.731509,297.365316 729.731509,300.502933 Z" id="Path" fill="#FFB100" fill-rule="nonzero"/><path d="M948.468961,335.088696 L946.469108,366.264686 C933.728468,363.939212 924.070562,352.78284 924.070562,339.370743 L924.070562,300.502933 C924.070562,297.916402 924.429752,293.413765 925.100974,291.042181 C938.054877,300.509475 948.468961,317.816478 948.468961,335.088696 Z" id="Path" fill="#FFB100" fill-rule="nonzero"/><rect id="Rectangle-Copy-42" fill="#FF4B4B" fill-rule="nonzero" x="725.099817" y="995.182698" width="104.745455" height="35.5739283" rx="17.7869641"/><rect id="Rectangle-Copy-71" fill="#FF4B4B" fill-rule="nonzero" x="833.838445" y="995.182698" width="104.745455" height="35.5739283" rx="17.7869641"/><path d="M796.160295,316.994446 C813.314959,316.994446 827.221562,330.901049 827.221562,348.055713 L827.221562,366.949444 C827.221562,384.104109 813.314959,398.010712 796.160295,398.010712 C779.005631,398.010712 765.099028,384.104109 765.099028,366.949444 L765.099028,348.055713 C765.099028,330.901049 779.005631,316.994446 796.160295,316.994446 Z" id="Rectangle-130-Copy-42" fill="#FFFFFF" fill-rule="nonzero"/><path d="M804.736175,335.440187 C812.437712,335.440187 818.681041,341.683516 818.681041,349.385052 L818.681041,366.900041 C818.681041,374.601578 812.437712,380.844907 804.736175,380.844907 C797.034639,380.844907 790.791309,374.601578 790.791309,366.900041 L790.791309,349.385052 C790.791309,349.083641 790.800872,348.784463 790.819711,348.487805 C791.346326,348.572064 791.887191,348.615716 792.438251,348.615716 C798.077649,348.615716 802.649286,344.04408 802.649286,338.404681 C802.649286,337.452665 802.519001,336.531079 802.275288,335.65678 C803.073557,335.514455 803.896193,335.440187 804.736175,335.440187 Z" id="Path" fill="#3D3D3D" fill-rule="nonzero"/><path d="M869.282332,316.994446 C886.436996,316.994446 900.343599,330.901049 900.343599,348.055713 L900.343599,366.949444 C900.343599,384.104109 886.436996,398.010712 869.282332,398.010712 C852.127668,398.010712 838.221065,384.104109 838.221065,366.949444 L838.221065,348.055713 C838.221065,330.901049 852.127668,316.994446 869.282332,316.994446 Z" id="Rectangle-130-Copy-42" fill="#FFFFFF" fill-rule="nonzero" transform="translate(869.282332, 357.502579) scale(-1, 1) translate(-869.282332, -357.502579)"/><path d="M862.682781,335.440187 L863.00822,335.443909 L863.00822,335.443909 C862.724789,336.379878 862.572221,337.374462 862.572221,338.404681 C862.572221,344.04408 867.143857,348.615716 872.783256,348.615716 C874.112926,348.615716 875.383236,348.361563 876.548257,347.899187 C876.601097,348.386795 876.627647,348.882823 876.627647,349.385052 L876.627647,366.900041 C876.627647,374.601578 870.384318,380.844907 862.682781,380.844907 C854.981244,380.844907 848.737915,374.601578 848.737915,366.900041 L848.737915,349.385052 C848.737915,341.683516 854.981244,335.440187 862.682781,335.440187 Z" id="Path" fill="#3D3D3D" fill-rule="nonzero" transform="translate(862.682781, 358.142547) scale(-1, 1) translate(-862.682781, -358.142547)"/><path d="M832.500635,414.800646 C840.141111,414.800646 846.334941,408.609722 846.334941,400.972829 C846.334941,393.335936 832.500635,375.274059 832.500635,375.274059 C832.500635,375.274059 818.66633,393.335936 818.66633,400.972829 C818.66633,408.609722 824.860159,414.800646 832.500635,414.800646 Z" id="Oval-Copy-17" fill="#F3A577" fill-rule="nonzero"/><path d="M766.985835,380.22541 C784.641858,381.250788 798.954713,388.800626 809.47342,402.654528 L809.851961,403.158016 L799.812087,410.632642 C791.599698,399.601809 780.769863,393.717196 766.875137,392.760135 L766.260145,392.721108 L766.985835,380.22541 Z" id="Path" fill="#FFC6B7" fill-rule="nonzero"/><circle id="Oval-Copy-31" fill="#FFC6B7" fill-rule="nonzero" cx="693.828193" cy="373.627118" r="26.6804462"/><circle id="Oval-Copy-32" fill="#FFC6B7" fill-rule="nonzero" cx="959.315102" cy="373.627118" r="26.6804462"/><path d="M765.008344,402.13739 C775.109688,397.782801 786.64936,401.443028 792.525277,410.294739 C796.276531,414.593055 801.513522,418.450781 808.446101,419.368609 C809.188566,419.397179 809.962278,419.412082 810.766733,419.412082 L810.766733,419.412082 L811.137131,419.415082 C823.336586,419.612878 833.165132,429.56389 833.165132,441.810481 C833.165132,454.180775 823.137027,464.20888 810.766733,464.20888 C783.462024,464.20888 762.752473,453.484291 753.306678,431.572872 C748.40962,420.213162 753.648634,407.034448 765.008344,402.13739 Z" id="path-7" fill="#702323" fill-rule="nonzero" transform="translate(792.318132, 432.255362) rotate(5.000000) translate(-792.318132, -432.255362)"/><path d="M822.948376,441.810481 C826.152459,441.810481 829.269672,442.182419 832.259193,442.885474 C832.275479,443.693858 832.248953,444.510757 832.176913,445.334172 C831.098771,457.657393 820.234819,466.773331 807.911598,465.695189 C800.746604,465.068333 794.102332,463.740062 788.06452,461.709397 C795.119235,449.796935 808.101138,441.810481 822.948376,441.810481 Z" id="Path" fill="#B23232"/><path d="M784.517838,400.965142 L784.598255,401.130687 C785.3261,402.667661 785.733228,404.386135 785.733228,406.199698 L785.733228,412.128686 C785.733228,418.677665 780.424231,423.986662 773.875252,423.986662 L764.652381,423.986662 C759.153189,423.986662 754.528308,420.243289 753.186895,415.165701 C755.117585,408.208581 760.369367,402.311387 767.73722,399.871793 C773.488285,397.967539 779.462079,398.523067 784.517838,400.965142 Z" id="Path" fill="#FFFFFF"/><path d="M794.438484,410.39636 C797.800839,415.005263 802.681679,419.304742 809.507884,420.823292 C810.060746,420.893171 810.631788,420.956922 811.220843,421.01401 L811.815896,421.068856 L812.184623,421.104128 L812.540917,421.144118 C810.468716,422.916375 807.77822,423.986662 804.837745,423.986662 L795.614874,423.986662 C789.065895,423.986662 783.756898,418.677665 783.756898,412.128686 L783.756224,400.614581 C788.208699,402.564454 792.015996,405.948936 794.438484,410.39636 Z" id="Path" fill="#FFFFFF"/><rect id="Rectangle-Copy-44" fill="#FF4B4B" fill-rule="nonzero" x="677.68817" y="271.187381" width="297.108179" height="34.9151518" rx="8.56409384"/><rect id="Rectangle-Copy-72" fill="#FFB100" fill-rule="nonzero" x="768.59932" y="180.935007" width="118.579761" height="118.579761" rx="59.2898804"/><path d="M736.378359,221.187227 L820.188686,220.392613 C824.637779,220.397955 827.797524,224.734871 826.428887,228.957618 C819.853076,249.246419 800.667316,263.239377 778.737526,263.213119 C756.807736,263.186713 737.588362,249.14764 730.963873,228.84299 C729.585105,224.616944 731.929266,221.181885 736.378359,221.187227 Z" id="Combined-Shape-Copy-64" fill="#FFB100" fill-rule="nonzero" transform="translate(778.660641, 241.802866) rotate(48.000000) translate(-778.660641, -241.802866)"/><rect id="Rectangle-Copy-73" fill="#FF4B4B" fill-rule="nonzero" x="693.498805" y="530.086525" width="265.486909" height="39.5265869" rx="7.24654094"/><rect id="Rectangle-Copy-522" fill="#FFFFFF" fill-rule="nonzero" x="819.983883" y="528.768972" width="17.7869641" height="207"/><path d="M820.841127,528.768972 L836.913603,528.768972 C839.34869,528.768972 841.466727,530.437261 842.037167,532.80459 L852.672835,576.942612 C853.354683,579.772278 851.613531,582.618923 848.783865,583.30077 C848.379561,583.398192 847.965147,583.447417 847.549271,583.447417 L810.205459,583.447417 C807.294801,583.447417 804.935247,581.087863 804.935247,578.177206 C804.935247,577.76133 804.984472,577.346916 805.081895,576.942612 L815.717563,532.80459 C816.288003,530.437261 818.40604,528.768972 820.841127,528.768972 Z" id="Rectangle-Copy-523" fill="#FFFFFF" fill-rule="nonzero"/><path d="M685.593487,477.580586 C685.593487,482.807493 685.518767,496.549536 670.441629,496.549536 C676.966342,502.927261 680.568353,505.717452 681.247662,504.920111 L688.291305,501.193969 L690.204922,485.379144 C687.130632,476.695501 685.593487,474.095982 685.593487,477.580586 Z" id="Path-48-Copy-4" fill="#FFB100" fill-rule="nonzero"/><path d="M980.725336,477.580586 C980.725336,482.807493 980.650616,496.549536 965.573478,496.549536 C972.098191,502.927261 975.700202,505.717452 976.379512,504.920111 L983.423154,501.193969 L985.336772,485.379144 C982.262481,476.695501 980.725336,474.095982 980.725336,477.580586 Z" id="Path-48-Copy-5" fill="#FFB100" fill-rule="nonzero" transform="translate(975.455125, 490.568392) scale(-1, 1) translate(-975.455125, -490.568392)"/><path d="M1148.02452,723.38516 L1175.98886,773.835559 L1227.86398,743.886464 C1241.59718,735.957596 1259.15776,740.662939 1267.08663,754.396141 C1275.0155,768.129344 1270.31015,785.689922 1256.57695,793.618791 L1180.56239,837.505818 C1179.63982,838.038464 1178.69998,838.514093 1177.74694,838.933798 C1164.07699,845.727638 1147.34888,840.616767 1139.87385,827.131453 L1097.79866,751.22581 L1148.02452,723.38516 Z" id="Path" fill="#FFAADE" fill-rule="nonzero" transform="translate(1184.368446, 782.657263) rotate(-108.000000) translate(-1184.368446, -782.657263)"/><path d="M877.667822,821.613407 L927.110847,791.904248 L957.061469,843.778483 C964.990337,857.511686 982.550916,862.217029 996.284118,854.28816 C1010.01732,846.359292 1014.72266,828.798714 1006.7938,815.065511 L962.906769,739.050951 C962.374123,738.128381 961.798009,737.246553 961.182511,736.40656 C952.740904,723.687945 935.698499,719.750035 922.482275,727.691142 L848.091274,772.389765 L877.667822,821.613407 Z" id="Path-Copy" fill="#FFAADE" fill-rule="nonzero" transform="translate(929.368336, 790.862720) rotate(-108.000000) translate(-929.368336, -790.862720)"/><path d="M1023.70705,395.435004 C1061.13961,395.435004 1092.58389,421.073895 1101.43688,455.748667 L1101.36056,455.550688 C1107.7058,472.892221 1121.76997,480.695805 1143.10109,480.695805 C1143.46754,480.695805 1143.82103,480.701426 1144.16158,480.712667 L1144.94101,480.694139 L1144.94101,480.694139 L1145.95919,480.68589 C1179.9634,480.68589 1207.52927,508.251756 1207.52927,542.255975 C1207.52927,576.260194 1179.9634,603.82606 1145.95919,603.82606 C1129.70831,603.82606 1114.92792,597.530134 1103.92414,587.244394 L1103.92576,594.649749 C1103.92576,638.953322 1068.01062,674.868465 1023.70705,674.868465 C981.762578,674.868465 947.33698,642.676354 943.789677,601.651555 C917.684065,594.516272 898.494806,570.627069 898.494806,542.255975 C898.494806,513.994852 917.535592,490.180942 943.488353,482.943058 L943.48833,475.65372 C943.48833,431.350146 979.403472,395.435004 1023.70705,395.435004 Z" id="Combined-Shape" fill="#3D3D3D" fill-rule="nonzero"/><circle id="Oval" fill="#DA8E74" fill-rule="nonzero" cx="913.591317" cy="592.281669" r="22.7927717"/><circle id="Oval" fill="#DA8E74" fill-rule="nonzero" cx="1191.84074" cy="592.281669" r="22.7927717"/><path d="M1052.42002,490.158211 C1127.94862,490.158211 1189.17665,551.38624 1189.17665,626.914841 L1189.17665,844.778217 C1189.17665,920.306819 1127.94862,981.534848 1052.42002,981.534848 C976.891416,981.534848 915.663387,920.306819 915.663387,844.778217 L915.663387,626.914841 C915.663387,551.38624 976.891416,490.158211 1052.42002,490.158211 Z" id="path-9" fill="#DA8E74" fill-rule="nonzero"/><path d="M960.06397,526.054091 L960.06489,562.680667 C960.06489,581.154112 945.089204,596.129799 926.615758,596.129799 C924.11257,596.129799 921.673604,595.854834 919.327416,595.33346 C921.111544,587.789192 923.519462,580.487432 926.494437,573.484743 C928.164783,561.015994 935.521535,548.931814 944.037198,539.614749 L944.86476,538.721815 C946.111074,537.395613 947.378731,536.129338 948.653882,534.930278 L949.504941,534.140942 C953.054379,530.894202 956.637896,528.178595 959.958665,526.150323 L960.06397,526.054091 Z" id="Path" fill="#3D3D3D" fill-rule="nonzero"/><path d="M1146.07524,527.259502 C1162.83143,534.44144 1178.48709,555.043988 1178.48709,573.819038 C1180.98023,579.731385 1183.0696,585.855692 1184.72064,592.157418 C1182.99019,592.434283 1181.216,592.577679 1179.40832,592.577679 C1160.93487,592.577679 1145.95918,577.601992 1145.95918,559.128546 L1145.95918,529.527544 C1145.95918,528.753289 1145.98549,527.985179 1146.03726,527.224057 L1146.07524,527.259502 L1146.07524,527.259502 Z" id="Path" fill="#3D3D3D" fill-rule="nonzero"/><polygon id="Rectangle" fill="#FFAADE" fill-rule="nonzero" points="915.651052 725.864962 1189.16431 725.864962 1189.16431 807.563728 915.651052 807.563728"/><polygon id="Triangle" fill="#DA8E74" fill-rule="nonzero" transform="translate(1052.703692, 747.473694) scale(-1, 1) rotate(-180.000000) translate(-1052.703692, -747.473694)" points="1052.70369 724.680923 1091.48101 770.266466 1013.92638 770.266466"/><path d="M1189.17665,817.545211 L1189.17665,844.778217 C1189.17665,920.306819 1127.94862,981.534848 1052.42002,981.534848 C976.891416,981.534848 915.663227,920.306819 915.663227,844.778217 L915.663227,817.545211 L1189.17665,817.545211 Z" id="Path" fill="#2BE69C"/><polygon id="Rectangle" fill="#A56644" fill-rule="nonzero" points="915.663387 807.480955 1189.17665 807.480955 1189.17665 838.265997 915.663387 838.265997"/><rect id="Rectangle" fill="#2BE69C" fill-rule="nonzero" x="963.617011" y="807.480955" width="19.5366615" height="44.9935234"/><rect id="Rectangle-Copy-33" fill="#2BE69C" fill-rule="nonzero" x="1120.48999" y="807.480955" width="19.5366615" height="44.9935234"/><path d="M1018.76364,533.967694 C1034.17995,533.967694 1046.67735,546.465086 1046.67735,561.881401 L1046.67735,578.860556 C1046.67735,594.276871 1034.17995,606.774263 1018.76364,606.774263 C1003.34733,606.774263 990.849933,594.276871 990.849933,578.860556 L990.849933,561.881401 C990.849933,546.465086 1003.34733,533.967694 1018.76364,533.967694 Z" id="Rectangle-130-Copy-42" fill="#FFFFFF" fill-rule="nonzero"/><path d="M1025.03177,537.335002 C1031.95288,537.335002 1037.56354,542.94567 1037.56354,549.866779 L1037.56354,565.606905 C1037.56354,572.528015 1031.95288,578.138683 1025.03177,578.138683 C1018.11066,578.138683 1012.49999,572.528015 1012.49999,565.606905 L1012.49999,549.866779 C1012.49999,542.94567 1018.11066,537.335002 1025.03177,537.335002 Z" id="Combined-Shape" fill="#3D3D3D" fill-rule="nonzero"/><path d="M1085.65997,533.967694 C1101.07629,533.967694 1113.57368,546.465086 1113.57368,561.881401 L1113.57368,578.860556 C1113.57368,594.276871 1101.07629,606.774263 1085.65997,606.774263 C1070.24366,606.774263 1057.74627,594.276871 1057.74627,578.860556 L1057.74627,561.881401 C1057.74627,546.465086 1070.24366,533.967694 1085.65997,533.967694 Z" id="Rectangle-130-Copy-42" fill="#FFFFFF" fill-rule="nonzero" transform="translate(1085.659974, 570.370979) scale(-1, 1) translate(-1085.659974, -570.370979)"/><path d="M1089.69196,537.335002 C1096.61307,537.335002 1102.22374,542.94567 1102.22374,549.866779 L1102.22374,565.606905 C1102.22374,572.528015 1096.61307,578.138683 1089.69196,578.138683 C1082.77085,578.138683 1077.16018,572.528015 1077.16018,565.606905 L1077.16018,549.866779 C1077.16018,542.94567 1082.77085,537.335002 1089.69196,537.335002 Z" id="Combined-Shape" fill="#3D3D3D" fill-rule="nonzero" transform="translate(1089.691959, 557.736842) scale(-1, 1) translate(-1089.691959, -557.736842)"/><rect id="Rectangle-Copy-207" fill="#3D3D3D" fill-rule="nonzero" transform="translate(1028.871371, 651.839164) scale(-1, 1) rotate(-45.000000) translate(-1028.871371, -651.839164)" x="992.166128" y="599.14938" width="73.4104855" height="105.379568" rx="36.7052427"/><polygon id="Rectangle-Copy-208" fill="#3D3D3D" fill-rule="nonzero" points="1008.63019 644.435052 1106.98795 618.08017 1120.01216 666.687203 1021.6544 693.042086"/><rect id="Rectangle-Copy-209" fill="#3D3D3D" fill-rule="nonzero" transform="translate(1090.265971, 635.388531) rotate(-75.000000) translate(-1090.265971, -635.388531)" x="1053.56073" y="582.698747" width="73.4104855" height="105.379568" rx="36.7052427"/><polygon id="Rectangle-Copy-210" fill="#DA8E74" fill-rule="nonzero" points="981.969632 522.084386 1137.07888 522.084386 1137.07888 558.384385 981.969632 558.384385"/><path d="M1057.83242,506.452437 C1075.09689,498.929657 1094.78074,499.293802 1111.75516,507.44999 C1119.1475,511.001999 1122.2607,519.874145 1118.70869,527.266483 C1115.20468,534.558925 1106.52335,537.687101 1099.19268,534.360369 L1098.8922,534.220014 C1089.86286,529.881428 1079.41756,529.615008 1070.18961,533.469471 L1069.69644,533.679903 L1067.932,534.448736 C1060.41334,537.724895 1051.66241,534.28567 1048.38625,526.767012 C1045.15378,519.348603 1048.4588,510.730566 1055.76941,507.355218 L1056.06798,507.221268 L1057.83242,506.452437 Z" id="Path" fill="#3D3D3D" fill-rule="nonzero"/><path d="M991.24886,557.934779 C1007.29835,567.787098 1026.84132,570.165959 1044.78567,564.451528 C1052.60041,561.962901 1056.91807,553.610371 1054.42945,545.795631 C1051.97445,538.086495 1043.81296,533.780556 1036.09064,536.054681 L1035.77355,536.15185 C1026.22827,539.191572 1015.84755,538.001695 1007.24585,532.900465 L1006.78676,532.623445 L1005.14649,531.61653 C998.156958,527.325857 989.012546,529.513713 984.721872,536.503244 C980.488407,543.399582 982.561864,552.393721 989.33157,556.753663 L989.608586,556.927862 L991.24886,557.934779 Z" id="Path" fill="#3D3D3D" fill-rule="nonzero"/><circle id="Oval-Copy-67" fill="#DA8E74" fill-rule="nonzero" cx="1052.42002" cy="603.82606" r="17.1685813"/><path d="M1048.14674,680.183256 C1067.88824,667.809426 1082.98341,672.437645 1096.61782,680.183256 C1105.70742,685.346996 1102.71601,695.626728 1087.6436,711.022451 L1057.56403,711.022451 C1038.12483,698.712207 1034.98574,688.432476 1048.14674,680.183256 Z" id="Path-21" fill="#DA8E74" fill-rule="nonzero" transform="translate(1070.961954, 691.781800) rotate(-15.000000) translate(-1070.961954, -691.781800)"/><path d="M1076.7566,972.654547 C1086.72899,972.654547 1094.81321,980.738767 1094.81321,990.711158 L1094.81321,1033.3366 C1094.81321,1043.30899 1086.72899,1051.39321 1076.7566,1051.39321 C1066.78421,1051.39321 1058.69999,1043.30899 1058.69999,1033.3366 L1058.69999,990.711158 C1058.69999,980.738767 1066.78421,972.654547 1076.7566,972.654547 Z" id="Rectangle-4-Copy-43" fill="#1CB0F6" fill-rule="nonzero" transform="translate(1076.756599, 1012.023880) rotate(-90.000000) translate(-1076.756599, -1012.023880)"/><path d="M1028.76932,972.654547 C1038.74171,972.654547 1046.82593,980.738766 1046.82593,990.711158 L1046.82593,1033.3366 C1046.82593,1043.30899 1038.74171,1051.39321 1028.76932,1051.39321 C1018.79693,1051.39321 1010.71271,1043.30899 1010.71271,1033.3366 L1010.71271,990.711158 C1010.71271,980.738766 1018.79693,972.654547 1028.76932,972.654547 Z" id="Rectangle-4-Copy-44" fill="#1CB0F6" fill-rule="nonzero" transform="translate(1028.769321, 1012.023880) rotate(-90.000000) translate(-1028.769321, -1012.023880)"/><rect id="EDDY'S-HAND" fill="#FFC6B7" fill-rule="nonzero" transform="translate(1138.015144, 460.946516) rotate(-45.000000) translate(-1138.015144, -460.946516)" x="1086.86514" y="409.796516" width="102.299999" height="102.299999" rx="36.8914812"/><path d="M395.541901,821.134997 C426.603447,821.134997 451.783805,846.315356 451.783805,877.376902 L451.783805,971.508089 C451.783805,1002.56963 426.603447,1027.74999 395.541901,1027.74999 C364.480355,1027.74999 339.299997,1002.56963 339.299997,971.508089 L339.299997,877.376902 C339.299997,846.315356 364.480355,821.134997 395.541901,821.134997 Z" id="Rectangle" fill="#3D3D3D" fill-rule="nonzero"/><rect id="Rectangle" fill="#3D3D3D" fill-rule="nonzero" x="430.799765" y="959.04005" width="112.483808" height="34.9291826"/><path d="M411.855124,573.635001 L467.505008,573.635001 C518.511336,573.635001 559.860135,614.9838 559.860135,665.990128 L559.860135,879.117344 C559.860135,930.123672 518.511336,971.472471 467.505008,971.472471 L411.855124,971.472471 C360.848796,971.472471 319.499997,930.123672 319.499997,879.117344 L319.499997,665.990128 C319.499997,614.9838 360.848796,573.635001 411.855124,573.635001 Z" id="Rectangle-Copy" fill="#3D3D3D" fill-rule="nonzero"/><path d="M546.835694,630.468925 L569.332456,630.468925 C607.260238,630.468925 638.006781,661.215468 638.006781,699.14325 L638.006781,946.015609 C638.006781,983.943391 607.260238,1014.68993 569.332456,1014.68993 L546.835694,1014.68993 C508.907911,1014.68993 478.161369,983.943391 478.161369,946.015609 L478.161369,699.14325 C478.161369,661.215468 508.907911,630.468925 546.835694,630.468925 Z" id="Rectangle" fill="#3D3D3D" fill-rule="nonzero"/><path d="M239.159219,935.283922 C246.842865,935.283922 253.07169,941.512747 253.07169,949.196393 L253.07169,1018.46274 C253.07169,1026.14638 246.842865,1032.37521 239.159219,1032.37521 C231.475573,1032.37521 225.246748,1026.14638 225.246748,1018.46274 L225.246748,949.196393 C225.246748,941.512747 231.475573,935.283922 239.159219,935.283922 Z" id="Rectangle-4-Copy-23" fill="#FF4B4B" fill-rule="nonzero" transform="translate(239.159219, 983.829565) scale(-1, 1) rotate(-165.000000) translate(-239.159219, -983.829565)"/><path d="M459.569497,863.724823 L518.395095,863.724823 C523.668693,863.724823 528.306628,867.212533 529.770306,872.27894 L559.282355,974.432571 L559.282355,974.432571 L475.807529,974.432571 L448.194286,878.851507 C446.379322,872.569151 450.000858,866.004976 456.283214,864.190012 C457.351367,863.881424 458.457661,863.724823 459.569497,863.724823 Z" id="Rectangle-Copy-4" fill="#FFB100" fill-rule="nonzero"/><path d="M391.065433,884.869557 L433.965433,884.869557 L433.965433,1120.52916 C433.965433,1127.06843 428.664305,1132.36956 422.125032,1132.36956 L402.905834,1132.36956 C396.366561,1132.36956 391.065433,1127.06843 391.065433,1120.52916 L391.065433,884.869557 L391.065433,884.869557 Z" id="Rectangle-Copy-4" fill="#1CB0F6" fill-rule="nonzero" transform="translate(412.515433, 1008.619557) rotate(90.000000) translate(-412.515433, -1008.619557)"/><path d="M475.847857,974.294332 L559.282355,974.294332 L566.806993,1001.03776 C570.262402,1013.31868 563.107911,1026.0755 550.826989,1029.53091 C548.790832,1030.10381 546.685636,1030.39433 544.570417,1030.39433 L500.601067,1030.39433 C495.296881,1030.39433 490.639857,1026.8668 489.203233,1021.76087 L475.847857,974.294332 L475.847857,974.294332 Z" id="Rectangle-Copy-10" fill="#1CB0F6" fill-rule="nonzero"/><path d="M415.625099,812.79515 C428.867126,812.79515 439.601911,823.529934 439.601911,836.771962 L439.601911,924.118336 C439.601911,937.360364 428.867126,948.095148 415.625099,948.095148 C402.383071,948.095148 391.648287,937.360364 391.648287,924.118336 L391.648287,836.771962 C391.648287,823.529934 402.383071,812.79515 415.625099,812.79515 Z" id="Rectangle-Copy-153" fill="#FFB100" fill-rule="nonzero" transform="translate(415.625099, 880.445149) rotate(99.000000) translate(-415.625099, -880.445149)"/><path d="M362.931151,895.341119 C374.777659,895.341119 384.381151,904.944611 384.381151,916.791119 L384.381151,1010.84112 C384.381151,1014.4862 381.42623,1017.44112 377.781151,1017.44112 L348.081152,1017.44112 C344.436072,1017.44112 341.481152,1014.4862 341.481152,1010.84112 L341.481152,916.791119 C341.481152,904.944611 351.084644,895.341119 362.931151,895.341119 Z" id="Rectangle-Copy-9" fill="#1CB0F6" fill-rule="nonzero" transform="translate(362.931151, 956.391118) rotate(23.000000) translate(-362.931151, -956.391118)"/><path d="M401.252372,879.110237 L444.152371,879.110237 L444.152371,1012.76024 C444.152371,1024.60674 434.548879,1034.21024 422.702371,1034.21024 C410.855864,1034.21024 401.252372,1024.60674 401.252372,1012.76024 L401.252372,879.110237 L401.252372,879.110237 Z" id="Rectangle-Copy-20" fill="#1CB0F6" fill-rule="nonzero" transform="translate(422.702372, 956.660236) rotate(131.000000) translate(-422.702372, -956.660236)"/><path d="M431.983806,654.741747 L537.363374,654.741747 C564.501356,654.741747 586.501037,676.741428 586.501037,703.879411 L586.501037,814.587159 C586.501037,841.725141 564.501356,863.724823 537.363374,863.724823 L431.983806,863.724823 C404.845823,863.724823 382.846142,841.725141 382.846142,814.587159 L382.846142,703.879411 C382.846142,676.741428 404.845823,654.741747 431.983806,654.741747 Z" id="path-11" fill="#A56644" fill-rule="nonzero"/><path d="M537.363374,654.741747 C554.932783,654.741747 570.348524,663.962695 579.035167,677.829162 L390.312012,677.829162 C398.998655,663.962695 414.414397,654.741747 431.983806,654.741747 L537.363374,654.741747 Z" id="Path" fill="#FFB100"/><path d="M526.205367,786.767358 C518.608995,782.815965 509.270023,785.683384 505.18282,793.161886 L505.028225,793.451789 C500.668534,801.833095 495.566113,804.828118 487.194512,804.184258 L486.79969,804.151419 C478.161706,803.379653 470.533597,809.756483 469.761832,818.394466 C468.990066,827.03245 475.366896,834.660558 484.004879,835.432324 C505.496307,837.352487 522.680518,827.571375 532.889799,807.9445 C536.89185,800.250739 533.899128,790.769409 526.205367,786.767358 Z" id="Path" fill="#FFFFFF" fill-rule="nonzero"/><path d="M464.249881,771.961716 L476.682301,771.961716 C482.567647,771.961716 487.338662,776.732731 487.338662,782.618077 C487.338662,788.503422 482.567647,793.274437 476.682301,793.274437 L464.249881,793.274437 C458.364535,793.274437 453.59352,788.503422 453.59352,782.618077 C453.59352,776.732731 458.364535,771.961716 464.249881,771.961716 Z" id="Rectangle" fill="#87401A" fill-rule="nonzero"/><polygon id="Triangle" fill="#87401A" fill-rule="nonzero" points="470.170081 760.121315 483.786542 782.026057 456.55362 782.026057"/><path d="M436.513704,702.103351 C451.930018,702.103351 464.427411,714.600743 464.427411,730.017058 L464.427411,746.996213 C464.427411,762.412528 451.930018,774.90992 436.513704,774.90992 C421.097389,774.90992 408.599997,762.412528 408.599997,746.996213 L408.599997,730.017058 C408.599997,714.600743 421.097389,702.103351 436.513704,702.103351 Z" id="Rectangle-130-Copy-42" fill="#FFFFFF" fill-rule="nonzero"/><path d="M446.228265,718.679912 C453.149375,718.679912 458.760043,724.29058 458.760043,731.21169 L458.760043,746.951816 C458.760043,753.872925 453.149375,759.483593 446.228265,759.483593 C439.307155,759.483593 433.696487,753.872925 433.696487,746.951816 L433.700136,731.043845 C434.087314,731.089077 434.481205,731.112333 434.880527,731.112333 C440.438909,731.112333 444.944868,726.606374 444.944868,721.047992 C444.944868,720.266783 444.855861,719.506362 444.687434,718.776318 C445.190737,718.711889 445.705767,718.679912 446.228265,718.679912 Z" id="Path" fill="#3D3D3D" fill-rule="nonzero"/><rect id="Rectangle" fill="#A56644" fill-rule="nonzero" x="398.699997" y="682.535" width="72.599999" height="39.5999994"/><path d="M504.002058,702.103351 C519.418373,702.103351 531.915765,714.600743 531.915765,730.017058 L531.915765,746.996213 C531.915765,762.412528 519.418373,774.90992 504.002058,774.90992 C488.585743,774.90992 476.088351,762.412528 476.088351,746.996213 L476.088351,730.017058 C476.088351,714.600743 488.585743,702.103351 504.002058,702.103351 Z" id="Rectangle-130-Copy-42" fill="#FFFFFF" fill-rule="nonzero" transform="translate(504.002058, 738.506636) scale(-1, 1) translate(-504.002058, -738.506636)"/><path d="M501.263014,718.679912 C502.482619,718.679912 503.661533,718.854133 504.776225,719.179046 C504.464219,720.144128 504.299356,721.168827 504.299356,722.232032 C504.299356,727.591901 508.489208,731.973176 513.77234,732.279288 L513.794792,732.279212 L513.794792,746.951816 C513.794792,753.872926 508.184124,759.483594 501.263014,759.483594 C494.341904,759.483594 488.731236,753.872926 488.731236,746.951816 L488.731236,731.21169 C488.731236,724.29058 494.341904,718.679912 501.263014,718.679912 Z" id="Path" fill="#3D3D3D" fill-rule="nonzero" transform="translate(501.263014, 739.081753) scale(-1, 1) translate(-501.263014, -739.081753)"/><path d="M548.34262,764.548186 L547.656339,755.694444 L546.967843,755.7536 L546.079399,755.845985 L546.079399,755.845985 L545.160004,755.958858 L544.402178,756.063909 L543.624498,756.182075 L542.826946,756.313357 L542.420711,756.383916 L542.420711,756.383916 L541.593313,756.534872 L540.745993,756.698945 L540.314856,756.785901 L540.314856,756.785901 L539.437616,756.969652 L538.540405,757.166523 L537.623203,757.376513 L536.685991,757.599625 L535.728748,757.835859 L534.255285,758.214815 L533.247881,758.483857 L532.220378,758.766024 L531.172756,759.061317 L530.104996,759.369736 L528.465553,759.856978 L526.780688,760.37376 L525.632178,760.734692 L524.463431,761.108756 L523.274427,761.49595 L521.452897,762.101365 L519.58568,762.73633 L517.672708,763.400848 L515.713916,764.094921 L513.709236,764.818553 L511.658603,765.571745 L509.561951,766.354502 L507.419212,767.166825 L505.23032,768.008717 L502.995209,768.880182 L501.479425,769.477588 L498.386064,770.711838 L495.210181,771.998674 L493.591245,772.661815 L490.291285,774.027545 L489.453346,774.377197 L492.877765,782.570675 L495.275374,781.573381 L498.40263,780.287549 L501.450252,779.051885 L502.944152,778.452869 L505.147561,777.577866 L508.015447,776.455106 L510.113785,775.645973 L512.841343,774.61105 L514.834259,773.867801 L516.781887,773.152793 L518.055114,772.691812 L519.927118,772.023878 L521.753662,771.384191 L523.534682,770.772755 L524.696705,770.380827 L526.401708,769.816481 L527.512993,769.455948 L528.60395,769.107976 L530.202227,768.609568 L531.242279,768.292999 L532.261935,767.988991 L533.753137,767.556537 L534.721721,767.283939 L535.669843,767.023907 L536.597484,766.77644 L537.504624,766.541541 L538.826855,766.212756 L539.68266,766.009277 L540.927799,765.727627 L540.927799,765.727627 L541.732151,765.555574 L542.515887,765.396092 L543.27899,765.249182 L544.021439,765.114846 L544.743216,764.993084 C544.980361,764.954592 545.214058,764.918196 545.444302,764.883896 L546.457092,764.743694 L546.457092,764.743694 L547.106366,764.665947 L547.734882,764.600778 L548.041349,764.57291 L548.041349,764.57291 L548.34262,764.548186 Z" id="Path" fill="#A56644" fill-rule="nonzero"/><path d="M402.745139,624.548725 C421.382067,624.548725 436.490282,639.65694 436.490282,658.293867 L436.490282,687.302849 C436.490282,705.939777 421.382067,721.047992 402.745139,721.047992 C384.108212,721.047992 368.999997,705.939777 368.999997,687.302849 L368.999997,658.293867 C368.999997,639.65694 384.108212,624.548725 402.745139,624.548725 Z" id="Rectangle-Copy-19" fill="#3D3D3D" fill-rule="nonzero"/><path d="M270.665636,987.018503 L317.545435,987.018503 L317.545435,987.018503 L317.545435,1014.84345 C317.545435,1018.11308 314.894871,1020.76365 311.625234,1020.76365 L270.665636,1020.76365 C267.395999,1020.76365 264.745435,1018.11308 264.745435,1014.84345 L264.745435,992.938703 C264.745435,989.669067 267.395999,987.018503 270.665636,987.018503 Z" id="Rectangle-Copy-13" fill="#4CC5FF" fill-rule="nonzero" transform="translate(291.145435, 1003.891074) rotate(90.000000) translate(-291.145435, -1003.891074)"/><path d="M569.440271,842.43364 C582.682299,842.43364 593.417083,853.168424 593.417083,866.410452 L593.417083,1023.59177 L593.417083,1023.59177 L545.46346,1023.59177 L545.46346,866.410452 C545.46346,853.168424 556.198244,842.43364 569.440271,842.43364 Z" id="Rectangle-Copy-151" fill="#FFB100" fill-rule="nonzero" transform="translate(569.440271, 933.012707) rotate(-47.000000) translate(-569.440271, -933.012707)"/><path d="M626.476739,987.438138 L674.430362,987.438138 L675.23217,1025.88247 C675.270173,1027.70462 673.823842,1029.21256 672.001698,1029.25057 C671.911345,1029.25245 671.820953,1029.25062 671.730749,1029.24509 L651.373954,1027.99581 C637.836216,1027.165 627.184184,1016.11548 626.849693,1002.5564 L626.476739,987.438138 L626.476739,987.438138 Z" id="Rectangle-Copy-141" fill="#A56644" fill-rule="nonzero" transform="translate(650.854820, 1008.344710) rotate(-47.000000) translate(-650.854820, -1008.344710)"/><rect id="Rectangle" fill="#A56644" fill-rule="nonzero" x="626.399993" y="1000.8398" width="85.7999988" height="29.6999996" rx="14.8499998"/><path d="M373.38861,847.621005 C394.347816,847.621005 411.338609,864.611799 411.338609,885.571005 L411.338609,898.771005 C411.338609,919.730211 394.347816,936.721004 373.38861,936.721004 C352.429404,936.721004 335.438611,919.730211 335.438611,898.771005 L335.438611,885.571005 C335.438611,864.611799 352.429404,847.621005 373.38861,847.621005 Z" id="Rectangle-Copy-152" fill="#FFB100" fill-rule="nonzero" transform="translate(373.388610, 892.171004) rotate(134.000000) translate(-373.388610, -892.171004)"/><rect id="Rectangle-Copy-21" fill="#A56644" fill-rule="nonzero" transform="translate(392.099997, 916.834996) rotate(30.000000) translate(-392.099997, -916.834996)" x="365.699997" y="890.434996" width="52.7999992" height="52.7999992" rx="16.4999998"/><rect id="Rectangle" fill="#AFAFAF" fill-rule="nonzero" opacity="0.3" x="171" y="1029.95416" width="1131.89998" height="29.6999996" rx="14.8499998"/></g></g></svg>