<svg width="36" height="36" viewBox="0 0 36 36" fill="none" xmlns="http://www.w3.org/2000/svg"><path d="M18 33.746C9.30373 33.746 2.25402 26.6963 2.25402 18C2.25402 9.30373 9.30373 2.25402 18 2.25402C26.6963 2.25402 33.746 9.30373 33.746 18C33.746 26.6963 26.6963 33.746 18 33.746Z" fill="#FFF5D3" stroke="#FF9600" stroke-width="4.50804"/><path fill-rule="evenodd" clip-rule="evenodd" d="M17.8646 21.2034C19.7193 21.2034 21.2229 19.7201 21.2229 17.8904C21.2229 16.0606 19.7193 14.5773 17.8646 14.5773C16.0098 14.5773 14.5063 16.0606 14.5063 17.8904C14.5063 19.7201 16.0098 21.2034 17.8646 21.2034Z" fill="#FF9600"/><path fill-rule="evenodd" clip-rule="evenodd" d="M11.0712 10.9266C10.5689 10.5017 9.81094 10.5547 9.37263 11.0454C8.9286 11.5424 8.98148 12.2988 9.49035 12.7293L15.4558 17.7753C15.9581 18.2002 16.7161 18.1472 17.1544 17.6565C17.5984 17.1595 17.5455 16.403 17.0367 15.9726L11.0712 10.9266Z" fill="#FF9600"/><path fill-rule="evenodd" clip-rule="evenodd" d="M17.8646 21.2034C19.7193 21.2034 21.2229 19.7201 21.2229 17.8904C21.2229 16.0606 19.7193 14.5773 17.8646 14.5773C16.0098 14.5773 14.5063 16.0606 14.5063 17.8904C14.5063 19.7201 16.0098 21.2034 17.8646 21.2034Z" stroke="#FF9600" stroke-width="0.912963"/><path fill-rule="evenodd" clip-rule="evenodd" d="M11.0712 10.9266C10.5689 10.5017 9.81094 10.5547 9.37263 11.0454C8.9286 11.5424 8.98148 12.2988 9.49035 12.7293L15.4558 17.7753C15.9581 18.2002 16.7161 18.1472 17.1544 17.6565C17.5984 17.1595 17.5455 16.403 17.0367 15.9726L11.0712 10.9266Z" stroke="#FF9600" stroke-width="0.912963"/></svg>